<svg 
    width='2rem' 
    height='2rem'
    viewBox="0 0 247 167" 
    fill="none" 
    xmlns="http://www.w3.org/2000/svg"
>
    <path 
        d="M166.325 126.325L200.325 160.325C201.325 161.325 203.925 162.725 206.325 160.325L240.325 126.325C241.325 125.325 242.725 122.725 240.325 120.325L206.325 86.3252L200.325 80.3252L166.325 46.3252L160.325 40.3252L126.325 6.32516C125.325 5.32516 122.725 3.92516 120.325 6.32516L86.3252 40.3252L80.3252 46.3252L46.3252 80.3252L40.3252 86.3252L6.32516 120.325C5.32516 121.325 3.92516 123.925 6.32516 126.325L40.3252 160.325C41.3252 161.325 43.9252 162.725 46.3252 160.325L80.3252 126.325L86.3252 120.325L120.325 86.3252C121.325 85.3252 123.925 83.9252 126.325 86.3252L160.325 120.325L166.325 126.325Z" 
        fill='#FF614D' 
        stroke='#FF614D' 
        strokeWidth="10"
    />
</svg>